<svg id="Layer_1" height="512" viewBox="0 0 512 512" width="512" xmlns="http://www.w3.org/2000/svg" data-name="Layer 1"><circle cx="256" cy="256" fill="#f98506" r="248"/><path d="m115 336a254.822 254.822 0 0 0 48.732 150.253 247.3 247.3 0 0 0 92.268 17.747c136.967 0 248-111.033 248-248a247.094 247.094 0 0 0 -64.364-166.68 256.212 256.212 0 0 0 -68.636-9.32c-141.385 0-256 114.615-256 256z" fill="#e87605"/><circle cx="304" cy="80" fill="#8e4f0a" r="32"/><path d="m224 296v48l-80-64-136 32s37.429 2.857 64 56c0 0 71.143-21.143 80 32 0 0 86.286-6 104 56h-.369c17.714-62 104.369-56 104.369-56 8.857-53.143 80-32 80-32 26.571-53.143 64-56 64-56l-136-32-80 64v-48l-32 24z" fill="#5b223c"/><circle cx="276" cy="196" fill="#8e4f0a" r="20"/><circle cx="324" cy="448" fill="#844a0b" r="16"/><circle cx="192" cy="248" fill="#8e4f0a" r="16"/><path d="m288 344v-48l-32 24-32-24v48l-80-64-136 32h119l129 73 128-73h120l-136-32z" fill="#fff" opacity=".2"/><g fill="#260717"><path d="m160 160a40.046 40.046 0 0 0 40-40h-16a24 24 0 1 1 -24-24v-16a40 40 0 0 0 0 80z"/><path d="m304 120a40 40 0 1 0 -40-40 40.046 40.046 0 0 0 40 40zm0-64a24 24 0 1 1 -24 24 24.027 24.027 0 0 1 24-24z"/><path d="m80 272a40 40 0 0 0 0-80v16a24 24 0 1 1 -24 24h-16a40.046 40.046 0 0 0 40 40z"/><path d="m424 208a24 24 0 1 1 -24 24h-16a40 40 0 1 0 40-40z"/><path d="m.024 312.619a8 8 0 0 0 7.366 7.357c.026 0 .252.023.659.083a256.08 256.08 0 0 0 428.971 116.961 254.441 254.441 0 0 0 66.931-116.96c.347-.05.573-.074.659-.083a8 8 0 0 0 2.767-15.223 258.7 258.7 0 0 0 4.623-48.754 256 256 0 0 0 -437.02-181.02 254.328 254.328 0 0 0 -74.98 181.02 258.7 258.7 0 0 0 4.623 48.753 8 8 0 0 0 -4.599 7.866zm425.682 113.087a240.178 240.178 0 0 1 -398.962-98.353c11.351 6.768 25.825 19.674 38.1 44.225a8 8 0 0 0 9.435 4.091c9.689-2.88 38.584-8.014 55.675 2.662 7.754 4.844 12.385 12.362 14.154 22.984a8 8 0 0 0 8.446 6.665c.789-.05 77.861-4.778 95.076 48a8 8 0 0 0 8 8.017h.37a8 8 0 0 0 8-8.02c6.988-21.481 24.5-36.072 52.1-43.391a151.576 151.576 0 0 1 43.345-4.609 7.972 7.972 0 0 0 8.444-6.665c1.768-10.607 6.387-18.119 14.122-22.964 20.5-12.839 55.366-2.784 55.707-2.683a8 8 0 0 0 9.435-4.091c12.3-24.6 26.767-37.507 38.112-44.262a238.826 238.826 0 0 1 -59.559 98.394zm-141.172-74.5a8 8 0 0 0 8.464-.963l76.959-61.568 106.843 25.143c-12.68 7.607-27.893 21.082-40.975 44.914-12.762-2.75-41.621-6.863-62.257 6.029-9.878 6.17-16.561 15.259-19.93 27.075a168.09 168.09 0 0 0 -41.207 5.174c-26.212 6.86-45.445 20.033-56.612 38.561-11.143-18.523-30.316-31.7-56.43-38.559a166.834 166.834 0 0 0 -41.03-5.176c-3.369-11.816-10.052-20.905-19.93-27.075-20.64-12.9-49.5-8.777-62.257-6.029-13.08-23.832-28.293-37.306-40.972-44.914l106.844-25.14 76.956 61.569a8 8 0 0 0 13-6.247v-32l19.2 14.4a8 8 0 0 0 9.6 0l19.2-14.4v32a8 8 0 0 0 4.534 7.21zm-198.24-264.912a240 240 0 0 1 409.706 169.706 242.592 242.592 0 0 1 -4.187 44.914l-121.981-28.7a8 8 0 0 0 -6.83 1.54l-67 53.6v-31.354a8 8 0 0 0 -12.8-6.4l-27.202 20.4-27.2-20.4a8 8 0 0 0 -12.8 6.4v31.355l-67-53.6a8 8 0 0 0 -6.83-1.54l-121.981 28.7a242.592 242.592 0 0 1 -4.189-44.915 238.429 238.429 0 0 1 70.294-169.706z"/><path d="m276 224a28 28 0 1 0 -28-28 28.031 28.031 0 0 0 28 28zm0-40a12 12 0 1 1 -12 12 12.013 12.013 0 0 1 12-12z"/><path d="m324 424a24 24 0 1 0 24 24 24.027 24.027 0 0 0 -24-24zm0 32a8 8 0 1 1 8-8 8.009 8.009 0 0 1 -8 8z"/><path d="m168 248a24 24 0 1 0 24-24 24.027 24.027 0 0 0 -24 24zm32 0a8 8 0 1 1 -8-8 8.009 8.009 0 0 1 8 8z"/><path d="m381.121 166.146 18.879-15.733 18.879 15.733 10.242-12.292-16.625-13.854 16.625-13.854-10.242-12.292-18.879 15.733-18.879-15.733-10.242 12.292 16.625 13.854-16.625 13.854z"/></g></svg>