<?xml version="1.0" encoding="iso-8859-1"?>
<!-- Generator: Adobe Illustrator 19.0.0, SVG Export Plug-In . SVG Version: 6.00 Build 0)  -->
<svg version="1.1" id="Capa_1" xmlns="http://www.w3.org/2000/svg" xmlns:xlink="http://www.w3.org/1999/xlink" x="0px" y="0px"
	 viewBox="0 0 512 512" style="enable-background:new 0 0 512 512;" xml:space="preserve">
<g>
	<rect x="116.267" style="fill:#ACB3BA;" width="29.867" height="87.467"/>
	<rect x="199.467" style="fill:#ACB3BA;" width="29.867" height="87.467"/>
	<rect x="282.667" style="fill:#ACB3BA;" width="29.867" height="87.467"/>
	<rect x="365.867" style="fill:#ACB3BA;" width="29.867" height="87.467"/>
	<rect x="116.267" y="424.533" style="fill:#ACB3BA;" width="29.867" height="87.467"/>
	<rect x="199.467" y="424.533" style="fill:#ACB3BA;" width="29.867" height="87.467"/>
	<rect x="282.667" y="424.533" style="fill:#ACB3BA;" width="29.867" height="87.467"/>
	<rect x="365.867" y="424.533" style="fill:#ACB3BA;" width="29.867" height="87.467"/>
	<rect x="424.533" y="116.267" style="fill:#ACB3BA;" width="87.467" height="29.867"/>
	<rect x="424.533" y="199.467" style="fill:#ACB3BA;" width="87.467" height="29.867"/>
	<rect x="424.533" y="282.667" style="fill:#ACB3BA;" width="87.467" height="29.867"/>
	<rect x="424.533" y="365.867" style="fill:#ACB3BA;" width="87.467" height="29.867"/>
	<rect y="116.267" style="fill:#ACB3BA;" width="87.467" height="29.867"/>
	<rect y="199.467" style="fill:#ACB3BA;" width="87.467" height="29.867"/>
	<rect y="282.667" style="fill:#ACB3BA;" width="87.467" height="29.867"/>
	<rect y="365.867" style="fill:#ACB3BA;" width="87.467" height="29.867"/>
</g>
<path style="fill:#40596B;" d="M426.667,448H85.333C73.6,448,64,438.4,64,426.667V85.333C64,73.6,73.6,64,85.333,64h341.333
	C438.4,64,448,73.6,448,85.333v341.333C448,438.4,438.4,448,426.667,448z"/>
<rect x="106.667" y="106.667" style="fill:#ACB3BA;" width="298.667" height="298.667"/>
<rect x="149.333" y="149.333" style="fill:#40596B;" width="213.333" height="213.333"/>
<g>
</g>
<g>
</g>
<g>
</g>
<g>
</g>
<g>
</g>
<g>
</g>
<g>
</g>
<g>
</g>
<g>
</g>
<g>
</g>
<g>
</g>
<g>
</g>
<g>
</g>
<g>
</g>
<g>
</g>
</svg>
