<svg id="Layer_1" enable-background="new 0 0 496.035 496.035" height="512" viewBox="0 0 496.035 496.035" width="512" xmlns="http://www.w3.org/2000/svg"><path d="m473.847 74.479-52.29-52.29c-29.52-29.51-77.55-29.51-107.07 0l-292.3 292.3c-29.586 29.586-29.58 77.475 0 107.07l52.29 52.29c29.531 29.511 77.549 29.501 107.07 0l292.3-292.3c29.537-29.557 29.632-77.417 0-107.07zm-74.92 32.16-292.29 292.29c-17.05 17.04-44.77 17.04-61.82 0-17.054-17.054-17.107-44.703 0-61.81l292.3-292.3c27.35-27.351 74.61-8.1 74.61 30.91.01 11.67-4.54 22.65-12.8 30.91z"/></svg>