<?xml version="1.0" standalone="no"?>
<!DOCTYPE svg PUBLIC "-//W3C//DTD SVG 1.0//EN" "http://www.w3.org/TR/2001/REC-SVG-20010904/DTD/svg10.dtd">
<svg xmlns="http://www.w3.org/2000/svg" xmlns:xlink="http://www.w3.org/1999/xlink" id="body_1" width="4000" height="3000">

<g transform="matrix(5 0 0 5 0 0)">
    <path d="M607 466.843L322 475.757" stroke="#000000" stroke-width="1" fill="none" />
    <path d="M322 443.923L337.29 443.923L337.29 420.461L322 420.461" stroke="#000000" stroke-width="1" fill="none" />
    <path d="M518.552 443.923L518.552 420.461L542.014 420.461L542.014 443.923L518.552 443.923" stroke="#000000" stroke-width="1" fill="none" />
    <path d="M399.05 381.6L378.423 381.6L378.423 340.348L399.05 340.348L399.05 381.6" stroke="#000000" stroke-width="1" fill="none" />
    <path d="M375.845 381.6L355.218 381.6L355.218 340.348L375.845 340.348L375.845 381.6" stroke="#000000" stroke-width="1" fill="none" />
    <path d="M484.134 381.6L463.507 381.6L463.507 340.348L484.134 340.348L484.134 381.6" stroke="#000000" stroke-width="1" fill="none" />
    <path d="M460.929 381.6L440.303 381.6L440.303 340.348L460.929 340.348L460.929 381.6" stroke="#000000" stroke-width="1" fill="none" />
    <path d="M380.172 448.151L380.172 427.525L421.425 427.525L421.425 448.151L380.172 448.151" stroke="#000000" stroke-width="1" fill="none" />
    <path d="M380.172 424.946L380.172 404.32L421.425 404.32L421.425 424.946L380.172 424.946" stroke="#000000" stroke-width="1" fill="none" />
    <path d="M424.004 448.151L424.004 427.525L465.256 427.525L465.256 448.151L424.004 448.151" stroke="#000000" stroke-width="1" fill="none" />
    <path d="M424.004 424.946L424.004 404.32L465.256 404.32L465.256 424.946L424.004 424.946" stroke="#000000" stroke-width="1" fill="none" />
    <path d="M467.835 448.151L467.835 427.525L509.088 427.525L509.088 448.151L467.835 448.151" stroke="#000000" stroke-width="1" fill="none" />
    <path d="M467.835 424.946L467.835 404.32L509.088 404.32L509.088 424.946L467.835 424.946" stroke="#000000" stroke-width="1" fill="none" />
    <path d="M377.594 446.862L356.968 446.862L356.968 405.609L377.594 405.609L377.594 446.862" stroke="#000000" stroke-width="1" fill="none" />
    <path d="M322 420.461L337.29 420.461L337.29 443.923L322 443.923" stroke="#000000" stroke-width="1" fill="none" />
    <path d="M518.552 420.461L542.014 420.461L542.014 443.923L518.552 443.923L518.552 420.461" stroke="#000000" stroke-width="1" fill="none" />
    <path d="M588.138 407.083L514.172 407.083L514.172 461.811L342.76 466.511L342.76 398.798L337.974 398.798L337.974 319.059L588.138 319.059L588.138 407.083" stroke="#000000" stroke-width="1" fill="none" />
    <path d="M607 466.843L322 475.757" stroke="#000000" stroke-width="1" fill="none" />
    <path d="M525.302 324.381L543.35 324.381L543.35 360.478L525.302 360.478L525.302 324.381" stroke="#000000" stroke-width="1" fill="none" />
    <path d="M545.929 360.478L545.929 324.381L563.977 324.381L563.977 360.478L545.929 360.478" stroke="#000000" stroke-width="1" fill="none" />
    <path d="M525.302 363.056L543.35 363.056L543.35 399.152L525.302 399.152L525.302 363.056" stroke="#000000" stroke-width="1" fill="none" />
    <path d="M545.929 399.152L545.929 363.056L563.977 363.056L563.977 399.152L545.929 399.152" stroke="#000000" stroke-width="1" fill="none" />
</g>
</svg>