<svg id="Color" height="512" viewBox="0 0 24 24" width="512" xmlns="http://www.w3.org/2000/svg"><path d="m21.25 12h-18.5c-1.517 0-2.75-1.233-2.75-2.75v-6.5c0-1.517 1.233-2.75 2.75-2.75h18.5c1.517 0 2.75 1.233 2.75 2.75v6.5c0 1.517-1.233 2.75-2.75 2.75z" fill="#cfd8dc"/><g fill="#42a5f5"><path d="m10.75 7.25h-2.5c-.414 0-.75-.336-.75-.75s.336-.75.75-.75h2.5c.414 0 .75.336.75.75s-.336.75-.75.75z"/><path d="m10.75 9c-.414 0-.75-.336-.75-.75v-4.5c0-.414.336-.75.75-.75s.75.336.75.75v4.5c0 .414-.336.75-.75.75z"/><path d="m8.25 9c-.414 0-.75-.336-.75-.75v-4.5c0-.414.336-.75.75-.75s.75.336.75.75v4.5c0 .414-.336.75-.75.75z"/><path d="m14.75 9h-.5c-.965 0-1.75-.785-1.75-1.75v-2.5c0-.965.785-1.75 1.75-1.75h.5c.965 0 1.75.785 1.75 1.75v2.5c0 .965-.785 1.75-1.75 1.75zm-.5-4.5c-.138 0-.25.112-.25.25v2.5c0 .138.112.25.25.25h.5c.138 0 .25-.112.25-.25v-2.5c0-.138-.112-.25-.25-.25z"/><path d="m4.708 9h-1.458c-.414 0-.75-.336-.75-.75s.336-.75.75-.75h1.458c.158 0 .292-.172.292-.375s-.134-.375-.292-.375h-.416c-.988 0-1.792-.841-1.792-1.875s.804-1.875 1.792-1.875h1.458c.414 0 .75.336.75.75s-.336.75-.75.75h-1.458c-.158 0-.292.172-.292.375s.134.375.292.375h.416c.988 0 1.792.841 1.792 1.875s-.804 1.875-1.792 1.875z"/><path d="m18.25 9c-.414 0-.75-.336-.75-.75v-4.5c0-.414.336-.75.75-.75h1.25c1.103 0 2 .897 2 2s-.897 2-2 2h-.5v1.25c0 .414-.336.75-.75.75zm.75-3.5h.5c.275 0 .5-.224.5-.5s-.225-.5-.5-.5h-.5z"/></g><path d="m4.292 6.75c-.988 0-1.792-.841-1.792-1.875s.804-1.875 1.792-1.875h1.458c.414 0 .75.336.75.75s-.336.75-.75.75h-1.458c-.158 0-.292.172-.292.375s.134.375.292.375h.416c.988 0 1.792.841 1.792 1.875s-.804 1.875-1.792 1.875h-1.458c-.414 0-.75-.336-.75-.75s.336-.75.75-.75h1.458c.158 0 .292-.172.292-.375s-.134-.375-.292-.375zm5.708-1v-2c0-.414.336-.75.75-.75s.75.336.75.75v4.5c0 .414-.336.75-.75.75s-.75-.336-.75-.75v-1h-1v1c0 .414-.336.75-.75.75s-.75-.336-.75-.75v-1.75-2.75c0-.414.336-.75.75-.75s.75.336.75.75v2zm2-5.75h-9.25c-1.517 0-2.75 1.233-2.75 2.75v6.5c0 1.517 1.233 2.75 2.75 2.75h9.25z" fill="#b4bcc0"/><path d="m10 5.75h-1v1.5h1z" fill="#3990d5"/><path d="m10.75 3c-.414 0-.75.336-.75.75v2 1.5 1c0 .414.336.75.75.75s.75-.336.75-.75v-4.5c0-.414-.336-.75-.75-.75z" fill="#3990d5"/><path d="m8.25 3c-.414 0-.75.336-.75.75v2.75 1.75c0 .414.336.75.75.75s.75-.336.75-.75v-1-1.5-2c0-.414-.336-.75-.75-.75z" fill="#3990d5"/><path d="m5.75 3h-1.458c-.988 0-1.792.841-1.792 1.875s.804 1.875 1.792 1.875h.416c.158 0 .292.172.292.375s-.134.375-.292.375h-1.458c-.414 0-.75.336-.75.75s.336.75.75.75h1.458c.988 0 1.792-.841 1.792-1.875s-.804-1.875-1.792-1.875h-.416c-.158 0-.292-.172-.292-.375s.134-.375.292-.375h1.458c.414 0 .75-.336.75-.75s-.336-.75-.75-.75z" fill="#3990d5"/><path d="m23.165 21.145c.309.037.619-.13.759-.416.14-.285.084-.627-.138-.854l-6.5-6.65c-.213-.218-.539-.286-.819-.17-.282.115-.467.39-.467.695v9.5c0 .328.213.617.525.715l.225.035c.24 0 .472-.116.615-.321l2.065-2.959z" fill="#42a5f5"/><path d="m16.467 13.056c-.282.114-.467.389-.467.694v9.5c0 .328.213.617.525.715l.225.035c.24 0 .472-.116.615-.321l2.065-2.959z" fill="#3990d5"/></svg>