<svg id="Layer_1" enable-background="new 0 0 512 512" height="512" viewBox="0 0 512 512" width="512" xmlns="http://www.w3.org/2000/svg"><g><g><path d="m205.856 7.5c34.158 0 61.857 65.75 61.857 146.851v146.849h-61.857z" fill="#ffc328"/><ellipse cx="205.857" cy="154.35" fill="#ffb200" rx="61.857" ry="146.85"/><path d="m237.626 154.35c0 31.943-4.723 62.46-13.3 85.925-7.511 20.548-15.461 28.582-18.47 30.572-3.009-1.99-10.959-10.024-18.47-30.571-8.576-23.465-13.3-53.98-13.3-85.926s4.723-62.461 13.3-85.927c7.511-20.547 15.461-28.58 18.47-30.57 3.009 1.99 10.959 10.023 18.47 30.571 8.576 23.466 13.3 53.981 13.3 85.926z" fill="#ffa000"/><path d="m205.86 7.5h100.28c34.16 0 61.86 65.75 61.86 146.85v298.81h-29.58c0-11-8.92-19.91-19.91-19.91-11 0-19.91 8.91-19.91 19.91h-30.89v-298.81c0-81.1-27.7-146.85-61.85-146.85z" fill="#ffd54f"/><g><path d="m306.14 7.5h-29.999c34.159 0 61.859 65.75 61.859 146.85v294.737c.273 1.314.42 2.677.42 4.072h29.58v-298.809c0-81.1-27.7-146.85-61.86-146.85z" fill="#ffc328"/></g><path d="m318.51 473.07c10.99 0 19.91-8.92 19.91-19.91h29.58v45.34c0 3.311-2.69 6-6 6h-88.29c-3.31 0-6-2.689-6-6v-45.34h30.89c0 10.99 8.91 19.91 19.91 19.91z" fill="#546e7a"/><g><path d="m338.42 453.16c0 1.396-.146 2.756-.42 4.07v41.27c0 3.311-2.69 6-6 6h30c3.31 0 6-2.689 6-6v-45.34z" fill="#455a64"/></g></g><g><g><path d="m201.719 277.102c1.255.83 2.696 1.245 4.138 1.245s2.883-.415 4.138-1.245c2.74-1.813 12.379-9.64 21.376-34.253 8.871-24.271 13.756-55.699 13.756-88.499s-4.885-64.229-13.756-88.5c-8.997-24.613-18.636-32.44-21.376-34.252-2.51-1.66-5.766-1.66-8.275 0-2.74 1.812-12.379 9.639-21.376 34.252-8.871 24.27-13.756 55.698-13.756 88.5 0 32.801 4.885 64.229 13.756 88.501 8.996 24.612 18.635 32.439 21.375 34.251zm-7.288-206.103c4.094-11.199 8.316-18.348 11.426-22.479 3.108 4.132 7.332 11.281 11.426 22.479 8.282 22.662 12.844 52.264 12.844 83.352s-4.562 60.688-12.844 83.35c-4.094 11.199-8.317 18.349-11.426 22.48-3.109-4.133-7.332-11.28-11.426-22.479-8.282-22.662-12.844-52.264-12.844-83.352s4.561-60.69 12.844-83.351z"/><path d="m368 183.991c-4.143 0-7.5 3.357-7.5 7.5v19.601h-28.817c-4.143 0-7.5 3.357-7.5 7.5 0 4.144 3.357 7.5 7.5 7.5h28.817v67.608h-28.817c-4.143 0-7.5 3.357-7.5 7.5 0 4.144 3.357 7.5 7.5 7.5h28.817v67.607h-28.817c-4.143 0-7.5 3.356-7.5 7.5 0 4.143 3.357 7.5 7.5 7.5h28.817v54.353h-15.633c-3.271-11.479-13.844-19.913-26.359-19.913s-23.089 8.435-26.359 19.913h-16.939v-30.541c0-4.143-3.357-7.5-7.5-7.5s-7.5 3.357-7.5 7.5v83.381c0 7.444 6.057 13.5 13.5 13.5h88.29c7.444 0 13.5-6.056 13.5-13.5v-307.009c0-4.142-3.357-7.5-7.5-7.5zm-49.491 256.756c6.843 0 12.409 5.566 12.409 12.409s-5.566 12.409-12.409 12.409-12.409-5.566-12.409-12.409 5.566-12.409 12.409-12.409zm41.991 56.253h-85.29v-36.34h16.942c3.272 11.477 13.846 19.905 26.356 19.905s23.084-8.43 26.356-19.905h15.636z"/><path d="m356.79 47.6c-12.93-30.69-30.92-47.6-50.65-47.6h-100.28c-9.52 0-18.68 3.97-27.05 11.55s-15.97 18.77-22.37 33.2c-1.68 3.79.02 8.22 3.81 9.9s8.22-.03 9.9-3.81c5.23-11.79 11.16-20.93 17.61-27.17 5.96-5.75 12.05-8.67 18.1-8.67 5.05 0 10.15 2.09 15.1 6.04 7.89 6.31 15.4 17.38 21.72 32.38 11.3 26.84 17.53 62.69 17.53 100.93v.38c-.04 38.11-6.26 73.8-17.53 100.55-10.28 24.42-23.71 38.42-36.82 38.42-13.12 0-26.54-14-36.83-38.42-11.3-26.84-17.53-62.68-17.53-100.93 0-26.02 2.96-51.46 8.54-73.59 1.02-4.01-1.41-8.09-5.43-9.11-4.01-1.01-8.09 1.42-9.11 5.44-5.89 23.31-9 50.02-9 77.26 0 40.2 6.64 78.11 18.71 106.75 12.93 30.7 30.91 47.601 50.65 47.601h54.35v75.109c0 4.141 3.36 7.5 7.5 7.5s7.5-3.359 7.5-7.5v-229.46c0-37.47-5.77-72.94-16.33-100.78-9.11-25.18-22.73-38.56-22.73-38.56.12 0 .22.03.34.04-.01-.02-.03-.03-.04-.05h69.689c12.87 0 26.04 13.5 36.25 37.08h-26.34c-4.14 0-7.5 3.35-7.5 7.5 0 4.14 3.36 7.5 7.5 7.5h31.96c5.88 18.02 9.8 38.98 11.5 61.4h-28.42c-4.14 0-7.5 3.36-7.5 7.5 0 4.15 3.36 7.5 7.5 7.5h29.22c.11 3.6.19 7.22.19 10.87v5.33c0 4.14 3.36 7.5 7.5 7.5s7.5-3.36 7.5-7.5v-5.33c.001-40.2-6.649-78.11-18.709-106.75zm-96.58 246.1h-23.77c7.5-7.931 14.29-18.88 20.07-32.601 1.3-3.09 2.53-6.31 3.7-9.609z"/></g></g></g></svg>